#!OML:ASF I:\Actors\actors\Patient Classification 1\Patient 1\Session 1\Subject1.ASF
:FULLY-SPECIFIED
:DEGREES
1181
root 0.891602 17.5679 8.14864 13.022 -1.57936 -8.61808
lowerback 3.75287 1.89244 2.82014
upperback -8.28264 3.00718 1.88185
thorax -10.9119 1.32289 0.0497383
lowerneck -10.2705 -8.81311 -5.54967
upperneck 18.2514 -12.8015 7.93904
head 8.22655 -5.7681 2.1608
rclavicle -1.75427e-014 7.55382e-015
rhumerus -14.6797 27.0912 -95.6116
rradius 75.6185
rwrist 47.7922
rhand -16.5918 -62.6197
rfingers 7.12502
rthumb 9.62922 -627.62
lclavicle -1.75427e-014 7.55382e-015
lhumerus -17.7501 -22.3875 99.0969
lradius 67.0558
lwrist -35.582
lhand -37.3658 -16.4698
lfingers 7.12502
lthumb -10.4276 13.2516
rfemur -8.72879 27.3684 20.0043
rtibia 2.25007
rfoot -14.2803 -32.3988
rtoes 8.14335
lfemur -5.5305 -29.4883 -9.50102
ltibia -0.904011
lfoot -11.2324 40.0833
ltoes 3.54474
1182
root 0.893896 17.5631 8.15328 13.1991 -1.24125 -8.56201
lowerback 3.53259 1.7706 2.9174
upperback -8.28694 2.84349 1.91234
thorax -10.7829 1.23913 0.0566328
lowerneck -9.72415 -8.92612 -5.77899
upperneck 17.6591 -12.8816 7.9342
head 7.95214 -5.85435 2.21574
rclavicle 1.75179e-015 -3.53837e-014
rhumerus -14.568 27.3172 -94.5412
rradius 77.7801
rwrist 47.8627
rhand -16.926 -62.3253
rfingers 7.12502
rthumb 9.30672 -627.9
lclavicle 1.75179e-015 -3.53837e-014
lhumerus -17.7056 -22.5128 98.9813
lradius 67.1899
lwrist -35.8499
lhand -37.9275 -16.7526
lfingers 7.12502
lthumb -10.9693 12.9408
rfemur -8.85642 27.3513 19.8798
rtibia 2.18709
rfoot -14.5094 -32.6715
rtoes 8.57211
lfemur -5.87794 -29.6065 -9.36677
ltibia -0.861661
lfoot -11.066 39.9277
ltoes 3.15589
1183
root 0.896265 17.5599 8.15754 13.3312 -0.801791 -8.54655
lowerback 3.34981 1.62091 3.06506
upperback -8.28956 2.652 1.98702
thorax -10.6765 1.13947 0.0839673
lowerneck -8.50052 -8.84614 -7.30398
upperneck 16.6239 -12.865 9.84625
head 7.62851 -5.84571 3.13583
rclavicle 2.3643e-014 -5.56597e-015
rhumerus -14.4163 27.4832 -93.2473
rradius 79.8601
rwrist 47.7
rhand -17.3113 -61.8274
rfingers 7.12502
rthumb 8.93492 -628.382
lclavicle 2.3643e-014 -5.56597e-015
lhumerus -17.6171 -22.6247 98.877
lradius 67.3114
lwrist -35.9744
lhand -38.1384 -16.79
lfingers 7.12502
lthumb -11.1728 12.8925
rfemur -8.89123 27.3856 19.8466
rtibia 2.09459
rfoot -14.7766 -33.0693
rtoes 9.00519
lfemur -6.21502 -29.6764 -9.17795
ltibia -0.822497
lfoot -10.7635 39.663
ltoes 2.53072
1184
root 0.899447 17.5605 8.16091 13.3585 -0.296414 -8.52736
lowerback 3.27694 1.44781 3.23771
upperback -8.27912 2.43714 2.07862
thorax -10.623 1.02626 0.114337
lowerneck -7.9894 -9.06758 -7.35936
upperneck 16.032 -13.0139 9.24119
head 7.31981 -6.00035 2.95883
rclavicle 2.80411e-014 -2.38542e-015
rhumerus -14.1968 27.414 -91.8263
rradius 81.6185
rwrist 47.8175
rhand -17.9252 -61.4195
rfingers 7.12502
rthumb 8.34253 -628.765
lclavicle 2.80411e-014 -2.38542e-015
lhumerus -17.5328 -22.7449 98.7818
lradius 67.4517
lwrist -35.894
lhand -38.0835 -16.5755
lfingers 7.12502
lthumb -11.1198 13.1098
rfemur -8.79893 27.2464 19.8775
rtibia 2.00095
rfoot -14.9785 -33.3838
rtoes 9.25461
lfemur -6.443 -29.7888 -9.04975
ltibia -0.793656
lfoot -10.3613 39.3546
ltoes 1.85464
1185
root 0.911784 17.5571 8.16447 13.4079 0.655253 -8.35946
lowerback 3.1277 1.14182 3.57414
upperback -8.29338 2.0474 2.10719
thorax -10.5482 0.811472 0.00824245
lowerneck -7.46921 -9.31983 -7.49699
upperneck 15.5018 -13.2008 8.58941
head 7.03704 -6.17642 2.78056
rclavicle -7.45443e-016 1.63003e-014
rhumerus -14.0793 27.2199 -90.3018
rradius 83.081
rwrist 48.077
rhand -18.9381 -61.2199
rfingers 7.12502
rthumb 7.36487 -628.928
lclavicle -7.45443e-016 1.63003e-014
lhumerus -17.4788 -22.9459 98.697
lradius 67.6019
lwrist -35.5999
lhand -37.9607 -16.4744
lfingers 7.12502
lthumb -11.0013 13.2173
rfemur -8.61554 27.0446 19.7511
rtibia 1.78014
rfoot -15.5044 -34.0509
rtoes 10.0196
lfemur -7.01957 -29.8981 -8.95802
ltibia -0.507909
lfoot -9.84577 38.5719
ltoes 0.946542
1186
root 0.90212 17.5521 8.15789 13.648 -0.22529 -8.5957
lowerback 3.04651 1.48956 3.44697
upperback -8.34728 2.51916 2.26101
thorax -10.5618 1.05934 0.189144
lowerneck -6.94432 -9.55811 -7.81578
upperneck 15.036 -13.3945 8.12873
head 6.8022 -6.34613 2.69338
rclavicle -2.86001e-014 4.03533e-014
rhumerus -14.0653 26.7579 -88.6751
rradius 84.2731
rwrist 48.4353
rhand -19.9968 -60.8813
rfingers 7.12502
rthumb 6.34288 -629.234
lclavicle -2.86001e-014 4.03533e-014
lhumerus -17.4254 -23.2436 98.6583
lradius 67.6934
lwrist -35.2638
lhand -37.8579 -16.4993
lfingers 7.12502
lthumb -10.9022 13.1977
rfemur -9.38121 26.6703 19.756
rtibia 2.3368
rfoot -14.7899 -32.9462
rtoes 8.60595
lfemur -6.83346 -29.9434 -8.78848
ltibia -0.811128
lfoot -10.35 39.446
ltoes 2.32902
1187
root 0.885584 17.5701 8.1684 12.9934 -0.619908 -8.60177
lowerback 3.62113 1.63672 3.09041
upperback -8.123 2.72258 2.41207
thorax -10.6752 1.19405 0.508957
lowerneck -6.37619 -9.7328 -8.07513
upperneck 14.5691 -13.5308 7.72996
head 6.55637 -6.47838 2.62816
rclavicle -3.96451e-014 -6.36111e-015
rhumerus -13.9331 25.8521 -87.1302
rradius 85.04
rwrist 48.9546
rhand -20.3092 -59.6233
rfingers 7.12502
rthumb 6.04126 -449.517
lclavicle -3.96451e-014 -6.36111e-015
lhumerus -17.3721 -23.5248 98.6063
lradius 67.7039
lwrist -35.1993
lhand -37.827 -16.5196
lfingers 7.12502
lthumb -10.8724 13.1789
rfemur -8.51446 27.1825 20.2027
rtibia 2.36324
rfoot -14.8801 -33.0451
rtoes 8.71416
lfemur -5.52672 -29.8701 -9.38267
ltibia -1.25633
lfoot -10.3877 39.6181
ltoes 2.53087
1188
root 0.890757 17.5701 8.17026 12.9007 -0.261385 -8.4443
lowerback 3.64504 1.55106 3.16379
upperback -8.09239 2.61585 2.4382
thorax -10.6547 1.13786 0.508947
lowerneck -5.9254 -9.87878 -8.12832
upperneck 14.1887 -13.6238 7.12216
head 6.32667 -6.58569 2.46729
rclavicle -2.20092e-014 -6.95746e-015
rhumerus -13.8703 24.9647 -85.6416
rradius 85.4805
rwrist 49.2553
rhand -19.7693 -58.1869
rfingers 7.12502
rthumb 6.56253 -448.065
lclavicle -2.20092e-014 -6.95746e-015
lhumerus -17.3363 -23.745 98.5372
lradius 67.6814
lwrist -35.3741
lhand -37.8862 -16.5719
lfingers 7.12502
lthumb -10.9295 13.1237
rfemur -8.32207 27.2057 20.1102
rtibia 2.33507
rfoot -15.2795 -33.3826
rtoes 9.4678
lfemur -5.6409 -29.5789 -9.53241
ltibia -1.13975
lfoot -10.0924 38.9837
ltoes 1.898
1189
root 0.893523 17.571 8.17165 12.8039 0.00788888 -8.38844
lowerback 3.72041 1.50041 3.28214
upperback -8.07215 2.5684 2.5119
thorax -10.6778 1.10854 0.526096
lowerneck -5.71006 -10.0341 -8.18098
upperneck 14.0066 -13.7229 6.45062
head 6.19654 -6.68892 2.27266
rclavicle 8.38623e-016 -1.45113e-014
rhumerus -13.9592 24.4568 -84.1549
rradius 85.6502
rwrist 49.1003
rhand -19.2363 -57.7333
rfingers 7.12502
rthumb 7.07701 -447.595
lclavicle 8.38623e-016 -1.45113e-014
lhumerus -17.2953 -23.9039 98.5141
lradius 67.6431
lwrist -35.5456
lhand -37.9984 -16.7294
lfingers 7.12502
lthumb -11.0377 12.9604
rfemur -8.14754 27.1962 20.1343
rtibia 2.32499
rfoot -15.5463 -33.6039
rtoes 9.97381
lfemur -5.69947 -29.3125 -9.57547
ltibia -1.05505
lfoot -9.95247 38.4497
ltoes 1.62066
1190
root 0.970483 17.5421 8.16326 13.4763 3.37133 -7.70595
lowerback 2.88326 0.461892 4.91128
upperback -8.36203 1.2422 2.23859
thorax -10.4902 0.317273 -0.495633
lowerneck -5.53543 -10.183 -8.24518
upperneck 13.8266 -13.8168 5.80422
head 6.07607 -6.78587 2.08764
rclavicle -6.63444e-015 -5.76476e-015
rhumerus -14.0652 24.105 -82.7916
rradius 85.4488
rwrist 48.6265
rhand -18.6977 -57.6763
rfingers 7.12502
rthumb 7.59699 -447.52
lclavicle -6.63444e-015 -5.76476e-015
lhumerus -17.2847 -24.0119 98.5507
lradius 67.6221
lwrist -35.5763
lhand -38.1158 -16.8299
lfingers 7.12502
lthumb -11.151 12.8539
rfemur -8.17004 26.3427 19.1257
rtibia 1.40525
rfoot -17.3583 -35.8225
rtoes 13.0443
lfemur -8.94886 -29.2417 -9.0897
ltibia 0.803102
lfoot -8.68962 35.2883
ltoes -1.62412
1191
root 1.07536 17.5037 8.12227 14.7754 6.13506 -6.87787
lowerback 1.79808 -0.303533 6.75493
upperback -8.83999 0.253349 1.80886
thorax -10.4506 -0.34468 -1.8595
lowerneck -5.32112 -10.2799 -8.34805
upperneck 13.6004 -13.87 5.35497
head 5.94805 -6.85192 1.9771
rclavicle -6.4605e-016 -1.40143e-014
rhumerus -14.4334 23.3677 -81.7892
rradius 85.044
rwrist 48.2539
rhand -17.9332 -56.8736
rfingers 7.12502
rthumb 8.33479 -446.689
lclavicle -6.4605e-016 -1.40143e-014
lhumerus -17.3422 -24.1023 98.6373
lradius 67.6219
lwrist -35.5335
lhand -38.2913 -16.8452
lfingers 7.12502
lthumb -11.3202 12.8293
rfemur -9.49466 23.8773 17.3992
rtibia 1.04734
rfoot -17.9096 -36.2637
rtoes 13.919
lfemur -13.0228 -29.4066 -8.71081
ltibia 3.02448
lfoot -7.97652 32.8861
ltoes -3.9135
1192
root 1.21726 17.4594 8.06957 16.6398 11.4388 -4.79583
lowerback -0.143317 -1.83729 8.82459
upperback -9.41225 -1.90706 1.03204
thorax -10.2938 -1.62391 -3.63905
lowerneck -5.2313 -10.2953 -8.53982
upperneck 13.539 -13.8447 5.16786
head 5.91256 -6.86271 1.95657
rclavicle -2.79386e-015 -2.85753e-014
rhumerus -15.3161 21.9865 -81.3156
rradius 84.6827
rwrist 48.264
rhand -16.8578 -55.1271
rfingers 7.12502
rthumb 9.37259 -444.899
lclavicle -2.79386e-015 -2.85753e-014
lhumerus -17.4297 -24.1792 98.7289
lradius 67.6063
lwrist -35.3904
lhand -38.4516 -16.8363
lfingers 7.12502
lthumb -11.4748 12.8296
rfemur -10.0147 21.4034 14.6503
rtibia -0.309091
rfoot -20.8009 -38.9441
rtoes 17.8116
lfemur -18.9577 -29.9162 -9.14154
ltibia 6.52377
lfoot -7.02906 28.0758
ltoes -8.00432
